<svg width="23" height="25" viewBox="0 0 23 25" fill="none" xmlns="http://www.w3.org/2000/svg">
  <path d="M13.8438 24.6325C11.3891 25.2144 8.82109 25.1035 6.42565 24.3123C4.03022 23.5211 1.90138 22.0806 0.276151 20.1511C0.130826 19.9721 0.0385218 19.7561 0.00969153 19.5273C-0.0191388 19.2986 0.0166573 19.0663 0.113026 18.8569C0.209394 18.6475 0.362484 18.4692 0.554957 18.3423C0.747429 18.2154 0.971594 18.1449 1.20206 18.1388C6.11556 18.003 9.42415 16.3117 11.2883 13.0772C13.1525 9.86735 12.955 6.15136 10.6217 1.8181C10.5129 1.61529 10.4629 1.38612 10.4775 1.15644C10.4921 0.926765 10.5705 0.70573 10.7041 0.518285C10.8376 0.330841 11.0208 0.18445 11.2331 0.0956361C11.4455 0.00682212 11.6784 -0.0208789 11.9056 0.0156596C16.7203 0.744042 21.2881 4.73163 22.5597 9.52167C23.4044 12.6829 22.9596 16.0501 21.323 18.8835C19.6864 21.7169 16.9918 23.7847 13.8315 24.6325H13.8438Z" fill="#3B4F7D"/>
</svg>
