<svg width="26" height="25" viewBox="0 0 26 25" fill="none" xmlns="http://www.w3.org/2000/svg">
  <path d="M15.9327 0.0345619C15.7954 -0.00106936 15.6525 -0.00925139 15.512 0.010485C15.3716 0.0302215 15.2364 0.0774881 15.1142 0.149575C14.9921 0.221661 14.8854 0.31715 14.8002 0.430565C14.715 0.54398 14.6531 0.673092 14.6179 0.810495L13.9174 3.40772C13.8807 3.54499 13.8713 3.68818 13.8898 3.82909C13.9083 3.97 13.9544 4.10587 14.0255 4.22896C14.0965 4.35205 14.1911 4.45994 14.3039 4.54647C14.4166 4.633 14.5453 4.69647 14.6826 4.73327C14.8199 4.77007 14.9631 4.77946 15.104 4.76092C15.2449 4.74239 15.3808 4.69627 15.5038 4.62522C15.6269 4.55417 15.7348 4.45957 15.8214 4.34682C15.9079 4.23408 15.9714 4.10539 16.0082 3.96811L16.6979 1.36011C16.7706 1.08578 16.7321 0.793843 16.5909 0.547681C16.4497 0.301519 16.217 0.121008 15.9435 0.0453388L15.9327 0.0345619ZM12.5919 19.5407C10.7341 19.5407 8.95233 18.8026 7.63864 17.489C6.32496 16.1753 5.58694 14.3935 5.58694 12.5357C5.58694 10.6779 6.32496 8.89614 7.63864 7.58246C8.95233 6.26878 10.7341 5.53076 12.5919 5.53076C14.4497 5.53076 16.2315 6.26878 17.5451 7.58246C18.8588 8.89614 19.5969 10.6779 19.5969 12.5357C19.5969 14.3935 18.8588 16.1753 17.5451 17.489C16.2315 18.8026 14.4497 19.5407 12.5919 19.5407V19.5407ZM9.17563 21.1033C9.24995 20.8261 9.43135 20.5897 9.67994 20.4462C9.92853 20.3027 10.2239 20.2638 10.5012 20.3382C10.7784 20.4125 11.0148 20.5939 11.1583 20.8425C11.3018 21.091 11.3407 21.3865 11.2663 21.6637L10.5658 24.2609C10.4796 24.5214 10.2973 24.7392 10.056 24.8699C9.81474 25.0006 9.5327 25.0343 9.26741 24.9642C9.00212 24.8941 8.77357 24.7255 8.62835 24.4927C8.48313 24.2598 8.43219 23.9804 8.48591 23.7113L9.17563 21.1033V21.1033ZM4.12129 16.1783C4.36995 16.0354 4.6652 15.9971 4.94209 16.0719C5.21897 16.1467 5.45481 16.3284 5.59772 16.577C5.74063 16.8257 5.7789 17.1209 5.70412 17.3978C5.62935 17.6747 5.44764 17.9106 5.19897 18.0535L2.8604 19.4006C2.61173 19.5435 2.31648 19.5818 2.0396 19.507C1.76272 19.4322 1.52688 19.2505 1.38397 19.0018C1.24106 18.7532 1.20278 18.4579 1.27756 18.181C1.35234 17.9041 1.53405 17.6683 1.78271 17.5254L4.12129 16.1783ZM23.789 6.0696C23.6469 5.8231 23.413 5.64283 23.1384 5.56813C22.8638 5.49343 22.5708 5.53036 22.3234 5.67086L19.9848 7.01796C19.8617 7.08872 19.7537 7.18304 19.667 7.29554C19.5804 7.40803 19.5167 7.5365 19.4797 7.67359C19.4426 7.81069 19.433 7.95374 19.4512 8.09458C19.4695 8.23541 19.5153 8.37127 19.5861 8.49439C19.6568 8.61752 19.7512 8.7255 19.8636 8.81217C19.9761 8.89885 20.1046 8.96251 20.2417 8.99954C20.3788 9.03657 20.5219 9.04623 20.6627 9.02797C20.8035 9.00971 20.9394 8.9639 21.0625 8.89313L23.4011 7.54603C23.5237 7.47472 23.631 7.37993 23.7169 7.26707C23.8027 7.15421 23.8655 7.02551 23.9015 6.88835C23.9376 6.75119 23.9462 6.60826 23.9269 6.46776C23.9076 6.32726 23.8607 6.19196 23.789 6.0696V6.0696ZM4.0243 9.11945C4.16158 9.15624 4.29026 9.21972 4.40301 9.30625C4.51576 9.39278 4.61036 9.50067 4.68141 9.62376C4.75246 9.74685 4.79857 9.88272 4.81711 10.0236C4.83565 10.1645 4.82625 10.3077 4.78945 10.445C4.75266 10.5823 4.68918 10.711 4.60265 10.8237C4.51613 10.9365 4.40824 11.0311 4.28515 11.1021C4.16206 11.1732 4.02618 11.2193 3.88527 11.2378C3.74436 11.2564 3.60118 11.247 3.4639 11.2102L0.86668 10.5097C0.722445 10.4809 0.585631 10.4228 0.464663 10.3392C0.343694 10.2555 0.241133 10.148 0.163292 10.0232C0.0854522 9.89838 0.0339812 9.75897 0.0120489 9.61354C-0.00988342 9.4681 -0.00181289 9.31971 0.0357636 9.17751C0.07334 9.03531 0.139627 8.9023 0.230543 8.78669C0.321459 8.67107 0.435079 8.57528 0.564408 8.50523C0.693736 8.43518 0.836035 8.39234 0.982543 8.37936C1.12905 8.36637 1.27667 8.38352 1.4163 8.42973L4.0243 9.11945ZM25.0823 15.8873C25.1199 15.7507 25.1302 15.6081 25.1126 15.4675C25.0951 15.327 25.05 15.1913 24.9799 15.0681C24.9098 14.945 24.8162 14.8369 24.7043 14.75C24.5924 14.6632 24.4645 14.5992 24.3279 14.5618L21.7199 13.8613C21.4426 13.7869 21.1472 13.8258 20.8986 13.9693C20.6501 14.1128 20.4687 14.3492 20.3943 14.6264C20.32 14.9037 20.3589 15.1991 20.5024 15.4477C20.6459 15.6963 20.8822 15.8777 21.1595 15.952L23.7675 16.6417C24.0418 16.7144 24.3338 16.676 24.5799 16.5347C24.8261 16.3935 25.0066 16.1608 25.0823 15.8873V15.8873ZM8.94932 4.0651C9.02008 4.18823 9.0659 4.32409 9.08416 4.46492C9.10241 4.60575 9.09275 4.7488 9.05573 4.8859C9.0187 5.023 8.95503 5.15146 8.86836 5.26396C8.78168 5.37645 8.6737 5.47077 8.55058 5.54153C8.42745 5.6123 8.29159 5.65811 8.15076 5.67637C8.00993 5.69463 7.86688 5.68497 7.72978 5.64794C7.59268 5.61091 7.46422 5.54725 7.35172 5.46057C7.23923 5.3739 7.14491 5.26592 7.07415 5.14279L5.72704 2.80421C5.65628 2.68109 5.61046 2.54523 5.5922 2.4044C5.57395 2.26356 5.58361 2.12052 5.62063 1.98342C5.65766 1.84632 5.72133 1.71785 5.808 1.60536C5.89468 1.49287 6.00266 1.39855 6.12578 1.32778C6.24891 1.25702 6.38477 1.2112 6.5256 1.19295C6.66643 1.17469 6.80948 1.18435 6.94658 1.22138C7.08368 1.2584 7.21214 1.32207 7.32464 1.40875C7.43713 1.49542 7.53145 1.6034 7.60221 1.72653L8.94932 4.0651V4.0651ZM19.058 23.7329C19.3045 23.5907 19.4848 23.3568 19.5595 23.0822C19.6342 22.8076 19.5973 22.5147 19.4568 22.2672L18.1096 19.9286C18.0389 19.8055 17.9446 19.6975 17.8321 19.6109C17.7196 19.5242 17.5911 19.4605 17.454 19.4235C17.3169 19.3865 17.1739 19.3768 17.033 19.3951C16.8922 19.4133 16.7563 19.4591 16.6332 19.5299C16.5101 19.6006 16.4021 19.695 16.3154 19.8075C16.2288 19.92 16.1651 20.0484 16.1281 20.1855C16.0533 20.4624 16.0916 20.7577 16.2345 21.0063L17.5816 23.3449C17.6529 23.4675 17.7477 23.5748 17.8605 23.6607C17.9734 23.7466 18.1021 23.8093 18.2393 23.8454C18.3764 23.8814 18.5193 23.89 18.6598 23.8707C18.8003 23.8514 18.9357 23.8046 19.058 23.7329V23.7329Z" fill="#3B4F7D"/>
</svg>
